PathFileType	4	(X/Y/Z)	W18_1_OpenSim.trc																																																																																																																						
DataRate	CameraRate	NumFrames	NumMarkers	Units	OrigDataRate	OrigDataStartFrame	OrigNumFrames																																																																																																																		
100	100	9	40	mm	100	2251	3000																																																																																																																		
Frame#	Time	R.ASIS			R.PSIS			S2			L.PSIS			L.ASIS			R.TH1			R.TH2			R.TH3			R.MKnee			R.Knee			R.SH1			R.SH2			R.SH3			R.SH4			R.Ankle			R.MAnkle			R.Heel			R.MT5			R.MT1			L.TH1			L.TH2			L.TH3			L.TH4			L.MKnee			L.Knee			L.SH1			L.SH2			L.SH3			L.Ankle			L.MAnkle			L.Heel			L.MT5			L.MT1			R.Acr			L.Acr			C7			T10			Clav			Sternum			R.Back		
		X1	Y1	Z1	X2	Y2	Z2	X3	Y3	Z3	X4	Y4	Z4	X5	Y5	Z5	X6	Y6	Z6	X7	Y7	Z7	X8	Y8	Z8	X9	Y9	Z9	X10	Y10	Z10	X11	Y11	Z11	X12	Y12	Z12	X13	Y13	Z13	X14	Y14	Z14	X15	Y15	Z15	X16	Y16	Z16	X17	Y17	Z17	X18	Y18	Z18	X19	Y19	Z19	X20	Y20	Z20	X21	Y21	Z21	X22	Y22	Z22	X23	Y23	Z23	X24	Y24	Z24	X25	Y25	Z25	X26	Y26	Z26	X27	Y27	Z27	X28	Y28	Z28	X29	Y29	Z29	X30	Y30	Z30	X31	Y31	Z31	X32	Y32	Z32	X33	Y33	Z33	X34	Y34	Z34	X35	Y35	Z35	X36	Y36	Z36	X37	Y37	Z37	X38	Y38	Z38	X39	Y39	Z39	X40	Y40	Z40
2251	22.5	894.5565	1063.3816	-453.2899	702.1414	1066.6581	-534.2153	693.0377	1064.0621	-579.2176	696.7954	1072.7932	-629.2548	872.2225	1060.5155	-744.7178	970.9868	775.0013	-415.9954	899.4326	734.7034	-411.6402	953.4116	638.9674	-418.4687	1034.4689	538.1726	-538.8267	1019.6468	542.1863	-421.6721	1002.1387	378.4936	-413.9524	984.8731	268.2465	-428.2718	921.1877	392.5339	-415.7687	905.4954	280.5172	-419.776	894.5349	118.8743	-421.676	944.7846	129.398	-509.2441	837.4901	90.8427	-487.1367	994.2683	58.7614	-379.909	1053.2371	54.8975	-461.0215	854.7059	758.0372	-756.183	839.1729	651.0887	-744.1872	772.1182	764.8583	-767.7596	760.3474	657.0679	-748.7981	794.6007	503.2554	-621.2859	785.3626	510.284	-731.8204	759.1444	376.9335	-746.1335	680.3291	399.3559	-749.5635	652.3619	293.4084	-741.2263	650.7364	86.4325	-732.5698	685.7448	94.9048	-635.605	585.7335	49.9216	-674.5761	753.191	33.307	-754.0408	797.7228	45.5854	-655.6601	851.3248	1466.1151	-439.4738	846.7427	1458.6451	-763.3765	793.4109	1502.3143	-604.3414	741.1393	1178.9796	-590.5101	928.1428	1404.4816	-603.2144	949.6282	1260.6056	-592.4282	709.3506	1411.9193	-520.6791
2252	22.51	894.6912	1061.4408	-453.5292	701.7903	1065.2222	-532.7227	692.2577	1062.6715	-577.6828	695.5053	1071.4266	-627.7371	870.0626	1058.1207	-744.747	971.3313	773.8394	-416.6489	899.9326	733.4444	-411.3887	954.0202	637.7902	-418.7031	1034.642	536.9932	-539.3423	1021.3808	541.3475	-422.2355	1014.3868	376.9001	-413.5318	1004.8477	265.8209	-427.286	932.739	385.2862	-414.6059	924.9144	272.639	-418.1552	925.9028	110.0109	-419.325	975.1122	123.3675	-506.945	871.095	77.2497	-484.3655	1029.8315	57.9028	-377.0376	1088.808	57.5498	-458.2087	847.5482	756.0997	-755.8902	829.8247	649.4731	-743.8385	765.0978	764.5553	-767.5638	751.0801	657.0591	-748.5637	782.5911	502.2458	-621.3928	772.6073	509.7389	-731.8162	744.6881	376.7238	-746.1686	666.0749	400.1737	-749.062	636.8234	294.5717	-740.6523	633.2623	87.0812	-732.1867	668.4246	95.1348	-635.1988	568.1097	50.8384	-674.2308	735.2788	33.3552	-753.9993	779.9579	45.6054	-655.6653	850.6484	1463.6184	-438.9549	847.0886	1456.9796	-762.7927	793.2374	1500.4096	-603.9705	740.42	1177.1127	-589.9365	928.0154	1402.1553	-602.5331	949.0168	1258.1115	-592.0862	708.8201	1410.031	-520.8896
2253	22.52	894.9941	1059.147	-453.6918	701.6708	1063.5941	-531.197	691.7172	1061.0983	-576.109	694.5136	1069.8602	-626.1776	868.0783	1055.4867	-744.699	971.1796	771.8154	-417.4752	899.8664	731.4937	-411.2472	953.8348	635.7929	-418.9314	1033.8152	534.8044	-539.7404	1022.2841	539.713	-422.6898	1025.9585	375.3737	-413.0158	1024.3184	263.9947	-426.2128	944.0244	377.9645	-413.3315	944.238	265.2399	-416.4679	957.4183	102.4787	-417.0745	1005.3518	118.7146	-504.7808	905.2352	65.178	-481.6819	1065.0287	58.6827	-374.3439	1123.7294	61.9296	-455.5702	840.4808	754.0489	-755.5742	820.611	647.7974	-743.4543	758.2233	764.1445	-767.2319	741.9525	656.9943	-748.2051	770.8027	501.2313	-621.474	760.0673	509.2048	-731.7388	730.3489	376.5555	-746.1623	651.9543	401.0891	-748.4579	621.4374	295.8311	-739.9475	615.7985	87.8346	-731.758	651.1212	95.4595	-634.7698	550.4438	51.9272	-673.8441	717.3302	33.4027	-753.969	762.1894	45.624	-655.6594	850.0826	1460.8485	-438.373	847.4833	1455.0001	-762.1297	793.1295	1498.1775	-603.5129	739.7929	1174.9274	-589.2423	927.9881	1399.4784	-601.7868	948.5071	1255.2903	-591.7009	708.3981	1407.7904	-520.9854
2254	22.53	895.4777	1056.5099	-453.7693	701.7991	1061.7645	-529.6282	691.4329	1059.3283	-574.4801	693.8317	1068.0807	-624.5618	866.2877	1052.655	-744.5808	970.5477	768.9591	-418.4115	899.2678	728.8658	-411.1263	952.918	633.0007	-419.065	1032.0337	531.6671	-539.9828	1022.4306	537.3396	-422.9914	1036.7648	373.9811	-412.4115	1043.0734	262.8358	-425.1138	954.9487	370.707	-411.9635	963.2747	258.4461	-414.7811	988.7248	96.4043	-415.0394	1035.1296	115.5787	-502.8769	939.4965	54.8234	-479.2183	1099.4763	61.1331	-371.9959	1157.5806	68.0792	-453.2748	833.5781	751.904	-755.2444	811.6019	646.0774	-743.058	751.551	763.6432	-766.7652	733.0508	656.8825	-747.7127	759.2962	500.2146	-621.5431	747.8143	508.6855	-731.589	716.2028	376.4356	-746.1267	638.0496	402.1091	-747.7772	606.255	297.2086	-739.1575	598.3702	88.7181	-731.3118	633.8608	95.9088	-634.3492	532.7515	53.2402	-673.4322	699.3677	33.4548	-753.957	744.4249	45.6514	-655.6404	849.6395	1457.863	-437.7107	847.9358	1452.7589	-761.3665	793.0847	1495.6564	-602.9548	739.2653	1172.4528	-588.4488	928.0551	1396.5167	-600.9802	948.1067	1252.2106	-591.2844	708.094	1405.2345	-520.9504
2255	22.54	896.1522	1053.5548	-453.7594	702.1787	1059.7203	-528.0023	691.4106	1057.3423	-572.7794	693.4506	1066.0731	-622.8733	864.7062	1049.6613	-744.3946	969.5139	765.3513	-419.3878	898.2397	725.6245	-410.8983	951.4026	629.4923	-419.0027	1029.3757	527.6805	-540.0504	1021.9385	534.3135	-423.1153	1046.7163	372.7528	-411.7432	1060.8746	262.3509	-424.0675	965.3936	363.644	-410.5349	981.7739	252.3497	-413.1719	1019.3693	91.8354	-413.3393	1063.9952	113.9962	-501.3442	973.3375	46.297	-477.1081	1132.6979	65.185	-370.1468	1189.8721	75.9174	-451.4828	826.9348	749.6815	-754.9104	802.8918	644.3248	-742.6744	745.1537	763.0635	-766.1797	724.4878	656.7245	-747.0839	748.1559	499.195	-621.5963	735.9458	508.179	-731.3749	702.3597	376.3636	-746.0715	624.4786	403.2345	-747.0499	591.3489	298.7253	-738.3362	581.0076	89.7638	-730.8782	616.6802	96.5182	-633.9669	515.0557	54.8409	-673.0156	681.4235	33.5175	-753.9664	726.6688	45.6916	-655.6049	849.3359	1454.7178	-436.9418	848.4516	1450.3105	-760.4821	793.1003	1492.8931	-602.2823	738.8456	1169.7236	-587.5779	928.2101	1393.3414	-600.116	947.8225	1248.9425	-590.84	707.9149	1402.4086	-520.7628
2256	22.55	897.0218	1050.3259	-453.6631	702.7976	1057.4512	-526.3041	691.6434	1055.1252	-570.9925	693.3481	1063.8265	-621.097	863.3422	1046.5332	-744.137	968.2279	761.1362	-420.335	896.9601	721.8932	-410.4296	949.4949	625.4107	-418.6555	1025.9757	522.9904	-539.951	1020.9661	530.7549	-423.0635	1055.7239	371.6775	-411.0536	1077.4629	262.4739	-423.1596	975.2191	356.8949	-409.1034	999.4227	247.001	-411.7197	1048.8032	88.7168	-412.087	1091.4286	113.8725	-500.2706	1006.0872	39.6057	-475.4776	1164.1321	70.6317	-368.9168	1220.063	85.1952	-450.3227	820.6604	747.3975	-754.5801	794.6004	642.5456	-742.3197	739.1238	762.4114	-765.4985	716.3899	656.5137	-746.332	737.4926	498.1707	-621.6117	724.5891	507.6784	-731.1122	688.9503	376.3352	-746.0039	611.3844	404.4663	-746.3077	576.8132	300.4045	-737.5359	563.7477	91.0126	-730.489	599.6215	97.3313	-633.6535	497.391	56.8028	-672.6193	663.5292	33.5943	-754.0009	708.9235	45.7387	-655.5551	849.1906	1451.465	-436.036	849.0292	1447.7095	-759.4581	793.1738	1489.9426	-601.4822	738.5451	1166.7813	-586.6481	928.4484	1390.0253	-599.1908	947.6624	1245.5543	-590.36	707.8651	1399.3652	-520.3957
2257	22.56	898.0804	1046.8866	-453.4799	703.6295	1054.9586	-524.5204	692.1118	1052.6736	-569.1088	693.4945	1061.3404	-619.2215	862.1954	1043.2937	-743.7999	966.9049	756.5225	-421.1929	895.6711	717.8536	-409.6231	947.4647	620.9641	-417.9797	1022.04	517.7992	-539.7221	1019.7074	526.8219	-422.8692	1063.7095	370.7077	-410.4037	1092.5693	263.0626	-422.4749	984.2708	350.5665	-407.7527	1015.8593	242.4029	-410.5026	1076.3944	86.8786	-411.3741	1116.8503	114.9693	-499.717	1036.9651	34.6377	-474.4333	1193.1577	77.1033	-368.3798	1247.5851	95.4638	-449.8748	814.8707	745.0709	-754.2555	786.8639	640.744	-741.9976	733.5688	761.6885	-764.748	708.8906	656.2376	-745.4868	727.4436	497.1374	-621.5652	713.8982	507.1699	-730.8212	676.1102	376.3471	-745.9309	598.9185	405.8129	-745.5838	562.7567	302.2759	-736.8029	546.6359	92.5115	-730.1787	582.7299	98.4005	-633.4408	479.8061	59.2089	-672.2733	645.7091	33.6834	-754.0687	691.1894	45.7771	-655.4988	849.2204	1448.1544	-434.9672	849.6575	1445.0075	-758.2814	793.303	1486.8647	-600.5403	738.3785	1163.6738	-585.6699	928.7676	1386.6392	-598.1948	947.6365	1242.1111	-589.8248	707.9473	1396.1631	-519.8216
2258	22.57	899.3103	1043.317	-453.2022	704.6384	1052.2634	-522.6397	692.7893	1050.0026	-567.121	693.8575	1058.6342	-617.2399	861.2634	1039.9698	-743.3707	965.802	751.7701	-421.9176	894.648	713.7286	-408.459	945.6229	616.4078	-417.0054	1017.8522	512.3677	-539.4282	1018.3886	522.7099	-422.5948	1070.6258	369.7678	-409.8711	1105.936	263.9042	-422.0942	992.3954	344.7517	-406.5875	1030.7054	238.5061	-409.6023	1101.4462	86.0432	-411.2564	1139.6495	116.9098	-499.7161	1065.1206	31.1622	-474.0473	1219.1281	84.0645	-368.5593	1271.877	106.0709	-450.1639	809.6774	742.7274	-753.9304	779.8215	638.9268	-741.7061	728.5976	760.8953	-763.9534	702.1215	655.8804	-744.5895	718.1678	496.0856	-621.4539	704.0428	506.634	-730.527	663.9685	376.4005	-745.8635	587.2291	407.2905	-744.9096	549.2963	304.377	-736.1763	529.7284	94.3108	-729.9856	566.0564	99.7834	-633.3616	462.3669	62.1506	-672.0141	627.9786	33.7797	-754.1863	673.465	45.7845	-655.4462	849.4339	1444.8342	-433.7215	850.3146	1442.2539	-756.9458	793.4876	1483.7206	-599.4427	738.3627	1160.4582	-584.6425	929.1665	1383.252	-597.112	947.7571	1238.6759	-589.2034	708.1623	1392.8651	-519.0171
2259	22.58	900.6863	1039.7108	-452.8094	705.7867	1049.4094	-520.6532	693.6462	1047.152	-565.027	694.4064	1055.7505	-615.1511	860.5526	1036.6033	-742.832	965.1788	747.1604	-422.4849	894.1547	709.7512	-407.014	944.2819	612.0121	-415.8453	1013.772	507.003	-539.1514	1017.2624	518.6391	-422.3253	1076.4731	368.7618	-409.5438	1117.3422	264.7325	-422.0919	999.4664	339.5268	-405.7204	1043.606	235.2104	-409.1033	1123.2377	85.8491	-411.744	1159.2333	119.2086	-500.2779	1089.6827	28.8525	-474.3427	1241.4168	90.8414	-369.4322	1292.4268	116.1931	-451.1642	805.1789	740.4014	-753.5912	773.6023	637.1062	-741.445	724.3085	760.0322	-763.1318	696.2011	655.4261	-743.6856	709.8383	494.9969	-621.306	695.1951	506.0494	-730.2629	652.6416	376.5013	-745.8204	576.4586	408.9197	-744.3132	536.5552	306.7483	-735.689	513.0947	96.4615	-729.9533	549.663	101.5372	-633.4523	445.16	65.7258	-671.8829	610.3447	33.8764	-754.3789	655.7468	45.7371	-655.407	849.8265	1441.5531	-432.304	850.9706	1439.4974	-755.4538	793.7275	1480.5725	-598.1779	738.5165	1157.1996	-583.552	929.645	1379.9318	-595.9242	948.0383	1235.3123	-588.4583	708.5073	1389.538	-517.9687
